<?xml version="1.0" standalone="no"?>
<!DOCTYPE svg PUBLIC "-//W3C//DTD SVG 20010904//EN"
 "http://www.w3.org/TR/2001/REC-SVG-20010904/DTD/svg10.dtd">
<svg version="1.0" xmlns="http://www.w3.org/2000/svg"
 width="512.000000pt" height="512.000000pt" viewBox="0 0 512.000000 512.000000"
 preserveAspectRatio="xMidYMid meet">
<metadata>
Created by potrace 1.11, written by Peter Selinger 2001-2013
</metadata>
<g transform="translate(0.000000,512.000000) scale(0.100000,-0.100000)"
fill="#000000" stroke="none">
<path d="M1556 4303 c-1 -1 -116 -3 -256 -4 -275 -2 -267 -1 -335 -60 -16 -15
-52 -44 -80 -65 -27 -20 -52 -40 -55 -43 -3 -3 -52 -44 -110 -91 -58 -46 -106
-88 -108 -92 -2 -5 -8 -8 -14 -8 -5 0 -17 -8 -26 -17 -9 -9 -82 -69 -162 -132
-80 -64 -150 -120 -156 -126 -6 -5 -56 -46 -112 -90 -55 -44 -101 -82 -101
-85 -1 -3 86 -4 192 -3 105 1 325 3 489 3 l296 1 174 178 c148 152 286 297
418 441 18 19 61 65 95 101 35 36 65 72 67 79 2 10 -20 13 -105 14 -60 1 -110
0 -111 -1z"/>
<path d="M1925 4245 c-33 -34 -127 -132 -210 -219 -82 -87 -175 -184 -205
-216 -30 -31 -111 -117 -180 -190 -69 -73 -137 -145 -152 -161 -16 -15 -28
-32 -28 -38 0 -5 19 -30 43 -54 23 -25 92 -98 152 -162 61 -65 128 -137 150
-160 22 -24 90 -96 150 -160 61 -65 128 -137 150 -160 34 -37 138 -148 300
-320 22 -24 92 -98 155 -166 63 -67 126 -134 140 -149 14 -15 44 -47 67 -72
23 -25 43 -45 45 -43 2 2 2 84 1 182 -1 98 -5 405 -7 683 -3 278 -6 510 -6
516 0 9 -63 11 -232 9 l-232 -3 96 92 c53 50 159 151 237 225 77 73 139 136
137 140 -3 4 -6 114 -7 244 -3 231 -4 237 -24 238 -11 1 -123 2 -250 3 l-230
1 -60 -60z"/>
<path d="M2622 4125 c0 -171 1 -185 16 -173 10 7 52 47 96 88 150 143 163 155
223 213 l62 57 -199 0 -198 0 0 -185z"/>
<path d="M3974 4182 c-61 -59 -178 -170 -259 -247 -81 -77 -175 -166 -209
-199 -33 -32 -101 -96 -150 -142 -48 -46 -82 -85 -75 -85 8 -1 241 -1 519 0
399 2 509 5 525 15 11 8 92 83 179 168 l159 155 -20 20 c-12 12 -27 25 -36 29
-8 5 -32 23 -53 41 -140 113 -451 353 -459 353 -5 0 -60 -49 -121 -108z"/>
<path d="M4650 3644 c-66 -64 -120 -120 -120 -125 0 -5 475 -5 543 0 11 1 -8
19 -58 56 -22 17 -45 35 -51 40 -45 40 -181 145 -188 145 -3 0 -60 -52 -126
-116z"/>
<path d="M4966 3383 c-1 -2 -136 -4 -300 -5 l-297 -3 -47 -43 c-41 -37 -203
-191 -377 -357 -121 -115 -203 -192 -235 -219 -30 -24 -152 -137 -314 -289
-23 -22 -76 -70 -118 -109 -42 -39 -101 -94 -131 -122 -30 -28 -98 -91 -152
-141 -54 -49 -121 -112 -149 -138 -28 -27 -91 -85 -140 -130 -49 -45 -96 -90
-105 -99 -8 -10 -21 -18 -27 -18 -13 0 -72 56 -163 156 -50 55 -257 276 -326
349 -16 18 -79 85 -140 150 -60 65 -125 134 -144 154 -18 20 -81 87 -140 150
-58 63 -122 131 -141 151 -19 20 -87 92 -150 160 -63 68 -128 138 -145 156
-16 17 -69 74 -117 126 l-88 94 -502 -3 c-276 -2 -504 -5 -506 -7 -2 -3 52
-59 120 -126 67 -67 377 -373 688 -680 311 -307 662 -654 780 -770 118 -117
383 -378 587 -580 205 -203 377 -371 382 -375 9 -5 142 127 833 827 326 331
1169 1184 1473 1492 130 131 234 241 231 243 -5 5 -136 10 -140 6z"/>
<path d="M3008 3372 l-378 -2 0 -33 c-1 -67 1 -696 3 -1035 1 -193 5 -351 8
-350 4 2 51 44 106 94 54 51 112 104 128 119 17 15 84 78 150 139 171 159 226
210 261 242 17 16 80 74 139 129 59 55 120 111 135 125 50 47 263 245 301 280
20 19 83 78 140 130 157 145 169 157 169 162 0 4 -572 4 -1162 0z"/>
</g>
</svg>
